<?xml version="1.0" encoding="UTF-8"?>
<!DOCTYPE svg PUBLIC "-//W3C//DTD SVG 1.1//EN" "http://www.w3.org/Graphics/SVG/1.1/DTD/svg11.dtd">
<svg xmlns="http://www.w3.org/2000/svg" version="1.1" width="5333px" height="5333px" style="shape-rendering:geometricPrecision; text-rendering:geometricPrecision; image-rendering:optimizeQuality; fill-rule:evenodd; clip-rule:evenodd" xmlns:xlink="http://www.w3.org/1999/xlink">
<g><path style="opacity:0.203" fill="#e4e5e7" d="M 2607.5,1351.5 C 2603.71,1352.95 2599.71,1354.12 2595.5,1355C 2584.32,1356.5 2573.16,1358 2562,1359.5C 2561.24,1359.43 2560.74,1359.1 2560.5,1358.5C 2566.46,1355.46 2572.8,1353.29 2579.5,1352C 2588.83,1351.5 2598.16,1351.33 2607.5,1351.5 Z"/></g>
<g><path style="opacity:1" fill="#adb3b6" d="M 2607.5,1351.5 C 2647.17,1351.5 2686.83,1351.5 2726.5,1351.5C 2730.3,1352.64 2734.3,1353.47 2738.5,1354C 2755.14,1355.83 2771.81,1357.33 2788.5,1358.5C 2793.53,1358.5 2798.53,1358.84 2803.5,1359.5C 2803.84,1360.34 2804.51,1360.67 2805.5,1360.5C 3093.89,1415.19 3311.72,1568.85 3459,1821.5C 3478.77,1860.71 3498.27,1900.04 3517.5,1939.5C 3518.11,1940.39 3518.44,1941.39 3518.5,1942.5C 3519.36,1944.42 3520.03,1946.42 3520.5,1948.5C 3520.5,1948.83 3520.5,1949.17 3520.5,1949.5C 3522.55,1956.59 3524.88,1963.59 3527.5,1970.5C 3527.5,1970.83 3527.5,1971.17 3527.5,1971.5C 3532.05,1984.97 3536.71,1998.3 3541.5,2011.5C 3542.88,2015.93 3544.55,2020.27 3546.5,2024.5C 3547.23,2025.71 3547.57,2027.04 3547.5,2028.5C 3547.36,2037.94 3549.69,2046.61 3554.5,2054.5C 3554.5,2054.83 3554.5,2055.17 3554.5,2055.5C 3553.64,2065.1 3556.31,2073.44 3562.5,2080.5C 3562.5,2081.5 3562.5,2082.5 3562.5,2083.5C 3561.17,2095.18 3563.5,2106.18 3569.5,2116.5C 3569.5,2117.5 3569.5,2118.5 3569.5,2119.5C 3568.23,2132.13 3570.56,2144.13 3576.5,2155.5C 3577.3,2158.27 3577.63,2160.94 3577.5,2163.5C 3576.36,2170.69 3576.53,2178.03 3578,2185.5C 3579.26,2191.79 3580.26,2198.13 3581,2204.5C 3581.44,2207.4 3582.6,2209.73 3584.5,2211.5C 3584.5,2221.5 3584.5,2231.5 3584.5,2241.5C 3583.17,2288.5 3583.17,2335.5 3584.5,2382.5C 3584.81,2386.04 3584.48,2389.38 3583.5,2392.5C 3582.38,2394.95 3581.55,2397.62 3581,2400.5C 3579.85,2411.19 3578.52,2421.86 3577,2432.5C 3576.18,2442.01 3576.34,2451.34 3577.5,2460.5C 3577.17,2461.17 3576.83,2461.83 3576.5,2462.5C 3575.66,2462.84 3575.33,2463.51 3575.5,2464.5C 3574.66,2464.84 3574.33,2465.51 3574.5,2466.5C 3574.5,2466.83 3574.5,2467.17 3574.5,2467.5C 3571.42,2474.15 3569.75,2481.15 3569.5,2488.5C 3568.67,2493.99 3568.17,2499.65 3568,2505.5C 3562.78,2516.46 3560.95,2527.8 3562.5,2539.5C 3561.68,2542.46 3561.01,2545.46 3560.5,2548.5C 3493.27,2808.51 3346.27,3010.01 3119.5,3153C 3036,3199.89 2947.66,3234.73 2854.5,3257.5C 2852.74,3258.46 2850.74,3258.79 2848.5,3258.5C 2835.19,3258 2822.19,3259.66 2809.5,3263.5C 2803.37,3264.09 2797.37,3264.75 2791.5,3265.5C 2774.79,3266.08 2758.46,3268.41 2742.5,3272.5C 2738.83,3272.5 2735.17,3272.5 2731.5,3272.5C 2694.5,3272.5 2657.5,3272.5 2620.5,3272.5C 2611.17,3272.5 2601.83,3272.5 2592.5,3272.5C 2577.59,3268.24 2562.25,3265.91 2546.5,3265.5C 2543.17,3265.5 2539.83,3265.5 2536.5,3265.5C 2516.29,3257.87 2495.29,3253.2 2473.5,3251.5C 2471.83,3251.5 2470.17,3251.5 2468.5,3251.5C 2461.03,3245.67 2452.7,3243.34 2443.5,3244.5C 2441.5,3243.83 2439.5,3243.17 2437.5,3242.5C 2164.58,3153.09 1969.08,2977.42 1851,2715.5C 1833.53,2674.89 1818.03,2633.56 1804.5,2591.5C 1804.44,2590.39 1804.11,2589.39 1803.5,2588.5C 1803.66,2585.48 1803.5,2582.48 1803,2579.5C 1800.51,2569.86 1798.17,2560.2 1796,2550.5C 1794.49,2544.79 1792.32,2539.45 1789.5,2534.5C 1789.5,2533.5 1789.5,2532.5 1789.5,2531.5C 1787.61,2517.82 1785.61,2504.15 1783.5,2490.5C 1783.5,2490.17 1783.5,2489.83 1783.5,2489.5C 1782.7,2487.96 1782.37,2486.29 1782.5,2484.5C 1782.5,2484.17 1782.5,2483.83 1782.5,2483.5C 1780.59,2468.82 1778.59,2454.16 1776.5,2439.5C 1776.5,2439.17 1776.5,2438.83 1776.5,2438.5C 1776.79,2436.26 1776.46,2434.26 1775.5,2432.5C 1773.59,2417.16 1771.59,2401.82 1769.5,2386.5C 1769.5,2386.17 1769.5,2385.83 1769.5,2385.5C 1768.89,2384.61 1768.56,2383.61 1768.5,2382.5C 1767.52,2331.19 1767.19,2279.85 1767.5,2228.5C 1769.07,2227.32 1769.9,2225.65 1770,2223.5C 1775.08,2195.67 1779.08,2167.67 1782,2139.5C 1782.81,2135.31 1782.65,2131.31 1781.5,2127.5C 1781.56,2124.66 1782.23,2121.99 1783.5,2119.5C 1792.51,2092.44 1799.18,2064.77 1803.5,2036.5C 1803.93,2033.99 1804.59,2031.66 1805.5,2029.5C 1891.72,1750.77 2066.72,1548.94 2330.5,1424C 2352.24,1414.46 2373.9,1404.96 2395.5,1395.5C 2398.83,1394.5 2402.17,1393.5 2405.5,1392.5C 2441.3,1383 2477.3,1374.34 2513.5,1366.5C 2513.83,1366.5 2514.17,1366.5 2514.5,1366.5C 2523.9,1364.82 2533.23,1362.82 2542.5,1360.5C 2543.49,1360.67 2544.16,1360.34 2544.5,1359.5C 2549.8,1358.81 2555.14,1358.47 2560.5,1358.5C 2560.74,1359.1 2561.24,1359.43 2562,1359.5C 2573.16,1358 2584.32,1356.5 2595.5,1355C 2599.71,1354.12 2603.71,1352.95 2607.5,1351.5 Z"/></g>
<g><path style="opacity:0.169" fill="#e2e4e5" d="M 2726.5,1351.5 C 2739.17,1351.33 2751.84,1351.5 2764.5,1352C 2772.96,1352.95 2780.96,1355.11 2788.5,1358.5C 2771.81,1357.33 2755.14,1355.83 2738.5,1354C 2734.3,1353.47 2730.3,1352.64 2726.5,1351.5 Z"/></g>
<g><path style="opacity:0.004" fill="#e3e6e6" d="M 2803.5,1358.5 C 2804.83,1359.17 2804.83,1359.17 2803.5,1358.5 Z"/></g>
<g><path style="opacity:0.069" fill="#e4e6e7" d="M 2544.5,1359.5 C 2543.51,1359.33 2542.84,1359.66 2542.5,1360.5C 2533.23,1362.82 2523.9,1364.82 2514.5,1366.5C 2514.17,1365.17 2513.83,1365.17 2513.5,1366.5C 2477.3,1374.34 2441.3,1383 2405.5,1392.5C 2411.97,1388.16 2418.97,1384.66 2426.5,1382C 2464.99,1368.87 2504.32,1361.37 2544.5,1359.5 Z"/></g>
<g><path style="opacity:0.086" fill="#e2e4e5" d="M 2805.5,1360.5 C 2830.29,1360.48 2854.96,1363.32 2879.5,1369C 3052.96,1412.94 3202.46,1497.77 3328,1623.5C 3385.85,1689.04 3435.52,1760.37 3477,1837.5C 3487.8,1858.11 3497.8,1879.11 3507,1900.5C 3511.63,1913.22 3515.13,1926.22 3517.5,1939.5C 3498.27,1900.04 3478.77,1860.71 3459,1821.5C 3311.72,1568.85 3093.89,1415.19 2805.5,1360.5 Z"/></g>
<g><path style="opacity:0.081" fill="#e2e4e5" d="M 2395.5,1395.5 C 2373.9,1404.96 2352.24,1414.46 2330.5,1424C 2066.72,1548.94 1891.72,1750.77 1805.5,2029.5C 1809.09,2001.24 1816.25,1973.91 1827,1947.5C 1922.07,1703.1 2088.57,1525.94 2326.5,1416C 2348.63,1406.22 2371.63,1399.38 2395.5,1395.5 Z"/></g>
<g><path style="opacity:0.07" fill="#e4e6e7" d="M 3518.5,1942.5 C 3521.39,1943.88 3523.89,1945.88 3526,1948.5C 3537.87,1972.68 3544.71,1998.01 3546.5,2024.5C 3544.55,2020.27 3542.88,2015.93 3541.5,2011.5C 3536.71,1998.3 3532.05,1984.97 3527.5,1971.5C 3528.83,1971.17 3528.83,1970.83 3527.5,1970.5C 3524.88,1963.59 3522.55,1956.59 3520.5,1949.5C 3521.83,1949.17 3521.83,1948.83 3520.5,1948.5C 3520.03,1946.42 3519.36,1944.42 3518.5,1942.5 Z"/></g>
<g><path style="opacity:0.134" fill="#e3e6e7" d="M 3547.5,2028.5 C 3551.49,2031.79 3553.99,2036.12 3555,2041.5C 3555.81,2046.02 3555.65,2050.35 3554.5,2054.5C 3549.69,2046.61 3547.36,2037.94 3547.5,2028.5 Z"/></g>
<g><path style="opacity:0.079" fill="#e1e4e5" d="M 1803.5,2036.5 C 1799.18,2064.77 1792.51,2092.44 1783.5,2119.5C 1784.33,2094.49 1788.49,2069.83 1796,2045.5C 1797.67,2042.83 1799.33,2040.17 1801,2037.5C 1801.67,2036.75 1802.5,2036.41 1803.5,2036.5 Z"/></g>
<g><path style="opacity:0.128" fill="#e5e6e7" d="M 3554.5,2055.5 C 3561.57,2062.37 3564.23,2070.7 3562.5,2080.5C 3556.31,2073.44 3553.64,2065.1 3554.5,2055.5 Z"/></g>
<g><path style="opacity:0.097" fill="#e3e5e5" d="M 3562.5,2083.5 C 3569.31,2093.54 3571.64,2104.54 3569.5,2116.5C 3563.5,2106.18 3561.17,2095.18 3562.5,2083.5 Z"/></g>
<g><path style="opacity:0.163" fill="#e3e5e5" d="M 3569.5,2119.5 C 3576.9,2130.45 3579.23,2142.45 3576.5,2155.5C 3570.56,2144.13 3568.23,2132.13 3569.5,2119.5 Z"/></g>
<g><path style="opacity:0.315" fill="#e1e3e4" d="M 1781.5,2127.5 C 1782.65,2131.31 1782.81,2135.31 1782,2139.5C 1779.08,2167.67 1775.08,2195.67 1770,2223.5C 1769.9,2225.65 1769.07,2227.32 1767.5,2228.5C 1767.33,2217.83 1767.5,2207.16 1768,2196.5C 1769.77,2172.92 1774.27,2149.92 1781.5,2127.5 Z"/></g>
<g><path style="opacity:0.185" fill="#e5e7e8" d="M 3577.5,2163.5 C 3584.06,2178.88 3586.39,2194.88 3584.5,2211.5C 3582.6,2209.73 3581.44,2207.4 3581,2204.5C 3580.26,2198.13 3579.26,2191.79 3578,2185.5C 3576.53,2178.03 3576.36,2170.69 3577.5,2163.5 Z"/></g>
<g><path style="opacity:0.197" fill="#e0e3e4" d="M 3584.5,2241.5 C 3593.83,2288.5 3593.83,2335.5 3584.5,2382.5C 3583.17,2335.5 3583.17,2288.5 3584.5,2241.5 Z"/></g>
<g><path style="opacity:0.068" fill="#e1e3e4" d="M 1768.5,2382.5 C 1768.56,2383.61 1768.89,2384.61 1769.5,2385.5C 1768.17,2385.83 1768.17,2386.17 1769.5,2386.5C 1771.59,2401.82 1773.59,2417.16 1775.5,2432.5C 1776.46,2434.26 1776.79,2436.26 1776.5,2438.5C 1775.17,2438.83 1775.17,2439.17 1776.5,2439.5C 1778.59,2454.16 1780.59,2468.82 1782.5,2483.5C 1781.17,2483.83 1781.17,2484.17 1782.5,2484.5C 1782.37,2486.29 1782.7,2487.96 1783.5,2489.5C 1782.17,2489.83 1782.17,2490.17 1783.5,2490.5C 1785.61,2504.15 1787.61,2517.82 1789.5,2531.5C 1781.38,2511.01 1775.88,2489.01 1773,2465.5C 1771.43,2449.49 1769.76,2433.49 1768,2417.5C 1767.17,2405.66 1767.34,2393.99 1768.5,2382.5 Z"/></g>
<g><path style="opacity:0.19" fill="#dee1e2" d="M 3583.5,2392.5 C 3586.38,2415.52 3584.38,2438.18 3577.5,2460.5C 3576.34,2451.34 3576.18,2442.01 3577,2432.5C 3578.52,2421.86 3579.85,2411.19 3581,2400.5C 3581.55,2397.62 3582.38,2394.95 3583.5,2392.5 Z"/></g>
<g><path style="opacity:0.047" fill="#e0e2e3" d="M 3576.5,2462.5 C 3578.87,2475.65 3577.21,2488.32 3571.5,2500.5C 3571.04,2501.3 3570.38,2501.63 3569.5,2501.5C 3569.5,2498.17 3569.5,2494.83 3569.5,2491.5C 3570.83,2490.83 3570.83,2490.17 3569.5,2489.5C 3569.5,2489.17 3569.5,2488.83 3569.5,2488.5C 3569.75,2481.15 3571.42,2474.15 3574.5,2467.5C 3575.83,2467.17 3575.83,2466.83 3574.5,2466.5C 3574.33,2465.51 3574.66,2464.84 3575.5,2464.5C 3575.33,2463.51 3575.66,2462.84 3576.5,2462.5 Z"/></g>
<g><path style="opacity:0.187" fill="#dee0e1" d="M 3569.5,2488.5 C 3569.5,2488.83 3569.5,2489.17 3569.5,2489.5C 3569.5,2490.17 3569.5,2490.83 3569.5,2491.5C 3569.5,2494.83 3569.5,2498.17 3569.5,2501.5C 3572.04,2515.14 3569.7,2527.8 3562.5,2539.5C 3560.95,2527.8 3562.78,2516.46 3568,2505.5C 3568.17,2499.65 3568.67,2493.99 3569.5,2488.5 Z"/></g>
<g><path style="opacity:0.156" fill="#e2e4e4" d="M 1789.5,2534.5 C 1792.32,2539.45 1794.49,2544.79 1796,2550.5C 1798.17,2560.2 1800.51,2569.86 1803,2579.5C 1803.5,2582.48 1803.66,2585.48 1803.5,2588.5C 1802.21,2587.71 1801.04,2586.71 1800,2585.5C 1797.47,2581.78 1795.47,2577.78 1794,2573.5C 1790.1,2560.7 1788.6,2547.7 1789.5,2534.5 Z"/></g>
<g><path style="opacity:0.086" fill="#e3e5e6" d="M 3560.5,2548.5 C 3547.26,2630.05 3520.76,2707.05 3481,2779.5C 3460.11,2819.61 3437.45,2858.61 3413,2896.5C 3386.76,2928.65 3360.76,2960.98 3335,2993.5C 3213.8,3117.88 3069.3,3204.05 2901.5,3252C 2886.03,3256.14 2870.36,3257.97 2854.5,3257.5C 2947.66,3234.73 3036,3199.89 3119.5,3153C 3346.27,3010.01 3493.27,2808.51 3560.5,2548.5 Z"/></g>
<g><path style="opacity:0.097" fill="#e3e5e6" d="M 1804.5,2591.5 C 1818.03,2633.56 1833.53,2674.89 1851,2715.5C 1969.08,2977.42 2164.58,3153.09 2437.5,3242.5C 2436.73,3243.15 2435.73,3243.48 2434.5,3243.5C 2419.56,3241.6 2404.89,3238.43 2390.5,3234C 2252.65,3183.85 2131.81,3107.35 2028,3004.5C 1987.56,2959.07 1950.56,2911.07 1917,2860.5C 1869.02,2783.6 1832.02,2701.6 1806,2614.5C 1803.67,2606.78 1803.17,2599.11 1804.5,2591.5 Z"/></g>
<g><path style="opacity:0.118" fill="#e4e6e6" d="M 2443.5,3244.5 C 2452.7,3243.34 2461.03,3245.67 2468.5,3251.5C 2458.97,3253.37 2450.64,3251.03 2443.5,3244.5 Z"/></g>
<g><path style="opacity:0.106" fill="#e2e4e5" d="M 2473.5,3251.5 C 2495.29,3253.2 2516.29,3257.87 2536.5,3265.5C 2518.78,3266.16 2501.45,3263.66 2484.5,3258C 2480.44,3256.31 2476.77,3254.14 2473.5,3251.5 Z"/></g>
<g><path style="opacity:0.099" fill="#e1e3e4" d="M 2848.5,3258.5 C 2843.58,3262.28 2837.92,3264.45 2831.5,3265C 2823.8,3266.57 2816.13,3266.74 2808.5,3265.5C 2808.83,3264.83 2809.17,3264.17 2809.5,3263.5C 2822.19,3259.66 2835.19,3258 2848.5,3258.5 Z"/></g>
<g><path style="opacity:0.6" fill="#bcc1c3" d="M 2809.5,3263.5 C 2809.17,3264.17 2808.83,3264.83 2808.5,3265.5C 2806.83,3265.5 2805.17,3265.5 2803.5,3265.5C 2799.5,3265.5 2795.5,3265.5 2791.5,3265.5C 2797.37,3264.75 2803.37,3264.09 2809.5,3263.5 Z"/></g>
<g><path style="opacity:0.095" fill="#dee1e2" d="M 2791.5,3265.5 C 2795.5,3265.5 2799.5,3265.5 2803.5,3265.5C 2801.61,3267.31 2799.28,3268.48 2796.5,3269C 2778.67,3273.3 2760.67,3274.47 2742.5,3272.5C 2758.46,3268.41 2774.79,3266.08 2791.5,3265.5 Z"/></g>
<g><path style="opacity:0.186" fill="#e4e6e7" d="M 2546.5,3265.5 C 2562.25,3265.91 2577.59,3268.24 2592.5,3272.5C 2578.9,3274.52 2565.57,3273.35 2552.5,3269C 2550.12,3268.28 2548.12,3267.12 2546.5,3265.5 Z"/></g>
<g><path style="opacity:0.207" fill="#e4e6e7" d="M 2620.5,3272.5 C 2657.5,3272.5 2694.5,3272.5 2731.5,3272.5C 2729.85,3273.93 2727.85,3274.76 2725.5,3275C 2692.5,3281 2659.5,3281 2626.5,3275C 2624.15,3274.76 2622.15,3273.93 2620.5,3272.5 Z"/></g>
<g><path style="opacity:0.166" fill="#e5e6e7" d="M 2800.5,3327.5 C 2794.5,3327.5 2788.5,3327.5 2782.5,3327.5C 2759.35,3325.92 2736.02,3325.26 2712.5,3325.5C 2671.5,3325.33 2630.5,3325.5 2589.5,3326C 2572.98,3326.39 2556.48,3327.22 2540,3328.5C 2537.97,3328.49 2536.13,3328.16 2534.5,3327.5C 2607.3,3320.61 2680.13,3319.27 2753,3323.5C 2753.33,3323.17 2753.67,3322.83 2754,3322.5C 2769.63,3323.81 2785.13,3325.48 2800.5,3327.5 Z"/></g>
<g><path style="opacity:0.656" fill="#c0c4c7" d="M 2712.5,3325.5 C 2736.02,3325.26 2759.35,3325.92 2782.5,3327.5C 2758.99,3327.27 2735.66,3326.61 2712.5,3325.5 Z"/></g>
<g><path style="opacity:1" fill="#adb3b6" d="M 2712.5,3325.5 C 2735.66,3326.61 2758.99,3327.27 2782.5,3327.5C 2788.5,3327.5 2794.5,3327.5 2800.5,3327.5C 2809.83,3327.5 2819.17,3327.5 2828.5,3327.5C 2832.03,3329.44 2836.03,3330.61 2840.5,3331C 2854.84,3332.26 2869.17,3333.59 2883.5,3335C 2893.68,3335.82 2903.68,3335.66 2913.5,3334.5C 2914.61,3334.56 2915.61,3334.89 2916.5,3335.5C 2936.96,3341.18 2957.96,3343.51 2979.5,3342.5C 2980.5,3342.5 2981.5,3342.5 2982.5,3342.5C 2990.43,3345.72 2998.76,3347.89 3007.5,3349C 3017.49,3349.5 3027.49,3349.67 3037.5,3349.5C 3038.5,3349.5 3039.5,3349.5 3040.5,3349.5C 3044.14,3351.66 3048.14,3353.16 3052.5,3354C 3062.11,3355.54 3071.78,3356.37 3081.5,3356.5C 3081.83,3356.5 3082.17,3356.5 3082.5,3356.5C 3084.86,3358.13 3087.52,3359.3 3090.5,3360C 3097.39,3361.82 3104.39,3362.98 3111.5,3363.5C 3116.65,3364.33 3121.98,3364.83 3127.5,3365C 3138.46,3370.22 3149.8,3372.05 3161.5,3370.5C 3162.61,3370.56 3163.61,3370.89 3164.5,3371.5C 3168.87,3373.96 3173.54,3375.62 3178.5,3376.5C 3179.92,3377.45 3181.59,3377.78 3183.5,3377.5C 3184.5,3377.5 3185.5,3377.5 3186.5,3377.5C 3189.83,3377.5 3193.17,3377.5 3196.5,3377.5C 3204.09,3378.54 3211.43,3380.2 3218.5,3382.5C 3221.84,3384.22 3225.51,3384.88 3229.5,3384.5C 3231.1,3384.23 3232.43,3384.57 3233.5,3385.5C 3468.98,3440.76 3689.65,3531.59 3895.5,3658C 4032.55,3745.42 4153.05,3852.25 4257,3978.5C 4305.9,4038.61 4348.56,4102.94 4385,4171.5C 4401.69,4204.54 4417.52,4237.87 4432.5,4271.5C 4433.23,4272.71 4433.57,4274.04 4433.5,4275.5C 4439.17,4295.18 4445.84,4314.52 4453.5,4333.5C 4453.5,4333.83 4453.5,4334.17 4453.5,4334.5C 4453.33,4335.49 4453.66,4336.16 4454.5,4336.5C 4454.5,4336.83 4454.5,4337.17 4454.5,4337.5C 4454.67,4344.83 4456.83,4351.5 4461,4357.5C 4461.95,4367.98 4464.45,4377.98 4468.5,4387.5C 4467.65,4397.77 4470.15,4407.1 4476,4415.5C 4480.84,4442.69 4484.84,4470.02 4488,4497.5C 4488.9,4501.37 4490.07,4505.04 4491.5,4508.5C 4491.5,4511.17 4491.5,4513.83 4491.5,4516.5C 4491.5,4524.17 4491.5,4531.83 4491.5,4539.5C 4491.5,4544.83 4491.5,4550.17 4491.5,4555.5C 3277.5,4555.5 2063.5,4555.5 849.5,4555.5C 849.5,4545.83 849.5,4536.17 849.5,4526.5C 849.511,4511.71 850.844,4497.04 853.5,4482.5C 853.457,4481.58 853.124,4480.92 852.5,4480.5C 852.216,4478.59 852.549,4476.92 853.5,4475.5C 857.023,4464.72 859.357,4453.56 860.5,4442C 860.492,4440.29 860.158,4438.79 859.5,4437.5C 859.279,4434.72 859.612,4432.05 860.5,4429.5C 869.125,4411.71 873.792,4393.05 874.5,4373.5C 874.5,4372.17 874.5,4370.83 874.5,4369.5C 877.511,4364.49 880.344,4359.16 883,4353.5C 886.12,4343.69 888.287,4333.69 889.5,4323.5C 971.887,4104.89 1103.89,3921.72 1285.5,3774C 1504.89,3603.64 1749.23,3481.47 2018.5,3407.5C 2020.04,3406.7 2021.71,3406.37 2023.5,3406.5C 2041.37,3403.31 2058.71,3398.65 2075.5,3392.5C 2076.92,3391.55 2078.59,3391.22 2080.5,3391.5C 2088.48,3392.67 2096.15,3391.17 2103.5,3387C 2104.38,3386.29 2105.05,3385.46 2105.5,3384.5C 2106.83,3384.5 2108.17,3384.5 2109.5,3384.5C 2109.92,3385.12 2110.58,3385.46 2111.5,3385.5C 2116.81,3384.53 2122.14,3383.69 2127.5,3383C 2131.51,3381.66 2135.17,3379.83 2138.5,3377.5C 2140.17,3377.5 2141.83,3377.5 2143.5,3377.5C 2146.06,3377.8 2148.39,3377.47 2150.5,3376.5C 2161.24,3375.27 2171.9,3373.6 2182.5,3371.5C 2182.83,3371.5 2183.17,3371.5 2183.5,3371.5C 2185.41,3371.78 2187.08,3371.45 2188.5,3370.5C 2197.23,3369.15 2205.89,3367.48 2214.5,3365.5C 2214.83,3365.5 2215.17,3365.5 2215.5,3365.5C 2227.34,3363.07 2239.01,3360.4 2250.5,3357.5C 2251.92,3356.55 2253.59,3356.22 2255.5,3356.5C 2264.92,3356.65 2274.25,3355.82 2283.5,3354C 2287.19,3353.09 2290.53,3351.59 2293.5,3349.5C 2295.5,3349.5 2297.5,3349.5 2299.5,3349.5C 2316.02,3349.74 2332.02,3347.41 2347.5,3342.5C 2350.83,3342.5 2354.17,3342.5 2357.5,3342.5C 2374.34,3342.86 2390.68,3340.52 2406.5,3335.5C 2414.41,3334.53 2422.41,3334.2 2430.5,3334.5C 2437.69,3335.56 2445.02,3335.39 2452.5,3334C 2459.8,3332.78 2467.14,3331.78 2474.5,3331C 2477.1,3330.61 2479.44,3329.78 2481.5,3328.5C 2498.99,3327.5 2516.66,3327.17 2534.5,3327.5C 2536.13,3328.16 2537.97,3328.49 2540,3328.5C 2556.48,3327.22 2572.98,3326.39 2589.5,3326C 2630.5,3325.5 2671.5,3325.33 2712.5,3325.5 Z"/></g>
<g><path style="opacity:0.194" fill="#e3e6e7" d="M 2481.5,3328.5 C 2479.44,3329.78 2477.1,3330.61 2474.5,3331C 2467.14,3331.78 2459.8,3332.78 2452.5,3334C 2445.02,3335.39 2437.69,3335.56 2430.5,3334.5C 2446.94,3327.78 2463.94,3325.78 2481.5,3328.5 Z"/></g>
<g><path style="opacity:0.301" fill="#dee0e2" d="M 2828.5,3327.5 C 2857.21,3325.74 2885.55,3328.07 2913.5,3334.5C 2903.68,3335.66 2893.68,3335.82 2883.5,3335C 2869.17,3333.59 2854.84,3332.26 2840.5,3331C 2836.03,3330.61 2832.03,3329.44 2828.5,3327.5 Z"/></g>
<g><path style="opacity:0.177" fill="#e3e5e6" d="M 2406.5,3335.5 C 2390.68,3340.52 2374.34,3342.86 2357.5,3342.5C 2359.12,3340.88 2361.12,3339.72 2363.5,3339C 2377.6,3334.64 2391.93,3333.47 2406.5,3335.5 Z"/></g>
<g><path style="opacity:0.201" fill="#dbdddf" d="M 2979.5,3342.5 C 2957.96,3343.51 2936.96,3341.18 2916.5,3335.5C 2935.01,3333.47 2953.34,3334.64 2971.5,3339C 2974.48,3339.7 2977.14,3340.87 2979.5,3342.5 Z"/></g>
<g><path style="opacity:0.284" fill="#e4e5e6" d="M 2347.5,3342.5 C 2332.02,3347.41 2316.02,3349.74 2299.5,3349.5C 2305.29,3346.07 2311.62,3343.9 2318.5,3343C 2328.2,3341.35 2337.87,3341.19 2347.5,3342.5 Z"/></g>
<g><path style="opacity:0.308" fill="#e0e2e3" d="M 3037.5,3349.5 C 3027.49,3349.67 3017.49,3349.5 3007.5,3349C 2998.76,3347.89 2990.43,3345.72 2982.5,3342.5C 2997.15,3340.8 3011.82,3341.63 3026.5,3345C 3030.47,3346.04 3034.13,3347.54 3037.5,3349.5 Z"/></g>
<g><path style="opacity:0.183" fill="#e5e6e7" d="M 2293.5,3349.5 C 2290.53,3351.59 2287.19,3353.09 2283.5,3354C 2274.25,3355.82 2264.92,3356.65 2255.5,3356.5C 2264.27,3351.07 2273.94,3348.4 2284.5,3348.5C 2287.53,3348.67 2290.53,3349 2293.5,3349.5 Z"/></g>
<g><path style="opacity:0.166" fill="#e2e4e5" d="M 3081.5,3356.5 C 3071.78,3356.37 3062.11,3355.54 3052.5,3354C 3048.14,3353.16 3044.14,3351.66 3040.5,3349.5C 3052.4,3347.95 3064.07,3349.11 3075.5,3353C 3077.73,3353.94 3079.73,3355.11 3081.5,3356.5 Z"/></g>
<g><path style="opacity:0.155" fill="#e1e3e4" d="M 3124.5,3363.5 C 3120.17,3363.5 3115.83,3363.5 3111.5,3363.5C 3104.39,3362.98 3097.39,3361.82 3090.5,3360C 3087.52,3359.3 3084.86,3358.13 3082.5,3356.5C 3096.69,3354.36 3110.35,3356.19 3123.5,3362C 3124.06,3362.38 3124.39,3362.88 3124.5,3363.5 Z"/></g>
<g><path style="opacity:0.069" fill="#e0e2e4" d="M 2250.5,3357.5 C 2239.01,3360.4 2227.34,3363.07 2215.5,3365.5C 2215.17,3364.17 2214.83,3364.17 2214.5,3365.5C 2205.89,3367.48 2197.23,3369.15 2188.5,3370.5C 2187.08,3371.45 2185.41,3371.78 2183.5,3371.5C 2183.17,3370.17 2182.83,3370.17 2182.5,3371.5C 2171.9,3373.6 2161.24,3375.27 2150.5,3376.5C 2148.39,3377.47 2146.06,3377.8 2143.5,3377.5C 2143.47,3376.5 2143.97,3375.84 2145,3375.5C 2179.34,3363.8 2214.51,3357.8 2250.5,3357.5 Z"/></g>
<g><path style="opacity:0.18" fill="#dfe2e3" d="M 3161.5,3370.5 C 3149.8,3372.05 3138.46,3370.22 3127.5,3365C 3121.98,3364.83 3116.65,3364.33 3111.5,3363.5C 3115.83,3363.5 3120.17,3363.5 3124.5,3363.5C 3137.89,3361.01 3150.23,3363.34 3161.5,3370.5 Z"/></g>
<g><path style="opacity:0.05" fill="#e2e4e5" d="M 3196.5,3377.5 C 3193.17,3377.5 3189.83,3377.5 3186.5,3377.5C 3185.5,3376.17 3184.5,3376.17 3183.5,3377.5C 3181.59,3377.78 3179.92,3377.45 3178.5,3376.5C 3173.54,3375.62 3168.87,3373.96 3164.5,3371.5C 3166.59,3370.39 3168.92,3369.72 3171.5,3369.5C 3179.49,3370 3187.16,3371.83 3194.5,3375C 3195.38,3375.71 3196.05,3376.54 3196.5,3377.5 Z"/></g>
<g><path style="opacity:0.151" fill="#e3e6e7" d="M 2138.5,3377.5 C 2135.17,3379.83 2131.51,3381.66 2127.5,3383C 2122.14,3383.69 2116.81,3384.53 2111.5,3385.5C 2110.58,3385.46 2109.92,3385.12 2109.5,3384.5C 2118.1,3378.27 2127.77,3375.93 2138.5,3377.5 Z"/></g>
<g><path style="opacity:0.582" fill="#caced0" d="M 3218.5,3382.5 C 3222.36,3382.81 3226.03,3383.48 3229.5,3384.5C 3225.51,3384.88 3221.84,3384.22 3218.5,3382.5 Z"/></g>
<g><path style="opacity:0.124" fill="#e4e6e7" d="M 2105.5,3384.5 C 2105.05,3385.46 2104.38,3386.29 2103.5,3387C 2096.15,3391.17 2088.48,3392.67 2080.5,3391.5C 2087.62,3385.3 2095.95,3382.97 2105.5,3384.5 Z"/></g>
<g><path style="opacity:0.067" fill="#e3e5e6" d="M 2075.5,3392.5 C 2058.71,3398.65 2041.37,3403.31 2023.5,3406.5C 2027.16,3402.03 2031.83,3398.86 2037.5,3397C 2044.79,3395.13 2052.12,3393.46 2059.5,3392C 2064.89,3391.27 2070.22,3391.43 2075.5,3392.5 Z"/></g>
<g><path style="opacity:0.096" fill="#e3e5e6" d="M 3233.5,3385.5 C 3515.94,3442.26 3773.27,3554.76 4005.5,3723C 4026.17,3738.67 4046.83,3754.33 4067.5,3770C 4092.75,3796.93 4120.08,3821.26 4149.5,3843C 4176.46,3876.64 4205.96,3908.14 4238,3937.5C 4256,3959.5 4274,3981.5 4292,4003.5C 4314.33,4037.83 4336.67,4072.17 4359,4106.5C 4380.65,4149.14 4402.32,4191.8 4424,4234.5C 4429.24,4246.57 4432.07,4258.9 4432.5,4271.5C 4417.52,4237.87 4401.69,4204.54 4385,4171.5C 4348.56,4102.94 4305.9,4038.61 4257,3978.5C 4153.05,3852.25 4032.55,3745.42 3895.5,3658C 3689.65,3531.59 3468.98,3440.76 3233.5,3385.5 Z"/></g>
<g><path style="opacity:0.097" fill="#e2e4e5" d="M 2018.5,3407.5 C 1749.23,3481.47 1504.89,3603.64 1285.5,3774C 1103.89,3921.72 971.887,4104.89 889.5,4323.5C 888.194,4312.51 889.694,4301.84 894,4291.5C 953.045,4136.47 1039.88,3999.64 1154.5,3881C 1323.1,3713.99 1517.77,3585.99 1738.5,3497C 1813.4,3467.03 1889.4,3440.03 1966.5,3416C 1982.7,3411.29 1999.2,3408.13 2016,3406.5C 2017.07,3406.53 2017.9,3406.86 2018.5,3407.5 Z"/></g>
<g><path style="opacity:0.069" fill="#e3e5e6" d="M 4454.5,4336.5 C 4453.66,4336.16 4453.33,4335.49 4453.5,4334.5C 4454.83,4334.17 4454.83,4333.83 4453.5,4333.5C 4445.84,4314.52 4439.17,4295.18 4433.5,4275.5C 4434.12,4275.39 4434.62,4275.06 4435,4274.5C 4437.71,4276.87 4440.04,4279.54 4442,4282.5C 4450.45,4299.62 4454.62,4317.62 4454.5,4336.5 Z"/></g>
<g><path style="opacity:0.106" fill="#e3e5e6" d="M 889.5,4323.5 C 888.287,4333.69 886.12,4343.69 883,4353.5C 880.344,4359.16 877.511,4364.49 874.5,4369.5C 874.33,4356.17 877.164,4343.51 883,4331.5C 885.031,4328.64 887.197,4325.98 889.5,4323.5 Z"/></g>
<g><path style="opacity:0.145" fill="#e4e6e7" d="M 4454.5,4337.5 C 4461.94,4342.84 4464.61,4350.01 4462.5,4359C 4469.47,4367.36 4471.8,4376.86 4469.5,4387.5C 4469.17,4387.5 4468.83,4387.5 4468.5,4387.5C 4464.45,4377.98 4461.95,4367.98 4461,4357.5C 4456.83,4351.5 4454.67,4344.83 4454.5,4337.5 Z"/></g>
<g><path style="opacity:0.127" fill="#e1e4e4" d="M 874.5,4373.5 C 873.792,4393.05 869.125,4411.71 860.5,4429.5C 860.795,4409.65 865.462,4390.99 874.5,4373.5 Z"/></g>
<g><path style="opacity:0.169" fill="#e1e3e5" d="M 4468.5,4387.5 C 4468.83,4387.5 4469.17,4387.5 4469.5,4387.5C 4476.81,4396.4 4479.64,4406.73 4478,4418.5C 4484.6,4431.11 4486.77,4444.44 4484.5,4458.5C 4491.5,4474.5 4493.83,4491.17 4491.5,4508.5C 4490.07,4505.04 4488.9,4501.37 4488,4497.5C 4484.84,4470.02 4480.84,4442.69 4476,4415.5C 4470.15,4407.1 4467.65,4397.77 4468.5,4387.5 Z"/></g>
<g><path style="opacity:0.15" fill="#e2e4e6" d="M 859.5,4437.5 C 860.158,4438.79 860.492,4440.29 860.5,4442C 859.357,4453.56 857.023,4464.72 853.5,4475.5C 851.197,4468.97 851.03,4462.3 853,4455.5C 854.481,4449.22 856.648,4443.22 859.5,4437.5 Z"/></g>
<g><path style="opacity:0.185" fill="#e6e8e9" d="M 852.5,4480.5 C 853.124,4480.92 853.457,4481.58 853.5,4482.5C 850.844,4497.04 849.511,4511.71 849.5,4526.5C 848.041,4526.43 846.708,4526.77 845.5,4527.5C 843.635,4511.12 845.968,4495.45 852.5,4480.5 Z"/></g>
<g><path style="opacity:0.192" fill="#e6e8e9" d="M 4491.5,4516.5 C 4494.94,4519.7 4497.1,4523.7 4498,4528.5C 4499.21,4538.73 4498.37,4548.73 4495.5,4558.5C 4494.67,4554.02 4494.17,4549.35 4494,4544.5C 4493.63,4542.51 4492.79,4540.84 4491.5,4539.5C 4491.5,4531.83 4491.5,4524.17 4491.5,4516.5 Z"/></g>
<g><path style="opacity:0.199" fill="#bbc0c2" d="M 849.5,4526.5 C 849.5,4536.17 849.5,4545.83 849.5,4555.5C 2063.5,4555.5 3277.5,4555.5 4491.5,4555.5C 4491.5,4550.17 4491.5,4544.83 4491.5,4539.5C 4492.79,4540.84 4493.63,4542.51 4494,4544.5C 4494.17,4549.35 4494.67,4554.02 4495.5,4558.5C 3279,4559.5 2062.33,4559.83 845.5,4559.5C 845.5,4548.83 845.5,4538.17 845.5,4527.5C 846.708,4526.77 848.041,4526.43 849.5,4526.5 Z"/></g>
<g><path style="opacity:0.755" fill="#a5acaf" d="M 853.5,4550.5 C 2064.33,4551.5 3275.33,4551.83 4486.5,4551.5C 4487.33,4546.35 4487.83,4541.02 4488,4535.5C 4488.67,4534.83 4489.33,4534.17 4490,4533.5C 4490.5,4540.49 4490.67,4547.49 4490.5,4554.5C 3277.17,4554.5 2063.83,4554.5 850.5,4554.5C 850.334,4546.83 850.5,4539.16 851,4531.5C 851.915,4532.33 852.581,4533.33 853,4534.5C 853.499,4539.82 853.666,4545.16 853.5,4550.5 Z"/></g>
<g><path style="opacity:1" fill="#afb5b8" d="M 4486.5,4551.5 C 3275.33,4551.83 2064.33,4551.5 853.5,4550.5C 854.479,4547.38 854.813,4544.04 854.5,4540.5C 1195.16,4543.3 1535.83,4545.14 1876.5,4546C 2443.5,4547.73 3010.5,4548.89 3577.5,4549.5C 3879.17,4549.07 4180.83,4548.57 4482.5,4548C 4483.09,4544.33 4484.25,4540.83 4486,4537.5C 4486.5,4542.15 4486.67,4546.82 4486.5,4551.5 Z"/></g>
</svg>
